<svg width="24" height="24" viewBox="0 0 24 24" fill="none" xmlns="http://www.w3.org/2000/svg">
<path d="M13.432 11.9841L18.732 6.69914C18.8277 6.60702 18.904 6.49679 18.9566 6.37486C19.0091 6.25293 19.0369 6.12175 19.0383 5.98898C19.0396 5.85621 19.0145 5.7245 18.9644 5.60154C18.9143 5.47857 18.8402 5.36682 18.7464 5.2728C18.6527 5.17878 18.5411 5.10437 18.4183 5.05391C18.2955 5.00346 18.1638 4.97797 18.0311 4.97893C17.8983 4.97989 17.767 5.00729 17.645 5.05952C17.5229 5.11175 17.4124 5.18777 17.32 5.28314L12.02 10.5681L6.73504 5.26814C6.64352 5.17027 6.53326 5.0918 6.41082 5.03737C6.28838 4.98295 6.15625 4.95369 6.02228 4.95133C5.88831 4.94897 5.75523 4.97355 5.63095 5.02362C5.50667 5.0737 5.39371 5.14824 5.2988 5.24282C5.20389 5.33739 5.12895 5.45008 5.07843 5.57419C5.02792 5.69829 5.00287 5.83128 5.00475 5.96526C5.00664 6.09924 5.03544 6.23147 5.08942 6.3541C5.14341 6.47674 5.2215 6.58727 5.31904 6.67914L10.604 11.9791L5.30004 17.2651C5.20441 17.3572 5.12808 17.4675 5.0755 17.5894C5.02293 17.7113 4.99516 17.8425 4.99383 17.9753C4.99249 18.1081 5.01761 18.2398 5.06771 18.3627C5.11782 18.4857 5.19191 18.5975 5.28567 18.6915C5.37942 18.7855 5.49097 18.8599 5.61379 18.9104C5.73661 18.9608 5.86824 18.9863 6.00102 18.9853C6.1338 18.9844 6.26505 18.957 6.38713 18.9048C6.5092 18.8525 6.61966 18.7765 6.71204 18.6811L12.012 13.3961L17.3 18.7001C17.3922 18.7958 17.5024 18.8721 17.6243 18.9247C17.7462 18.9772 17.8774 19.005 18.0102 19.0064C18.143 19.0077 18.2747 18.9826 18.3976 18.9325C18.5206 18.8824 18.6324 18.8083 18.7264 18.7145C18.8204 18.6208 18.8948 18.5092 18.9453 18.3864C18.9957 18.2636 19.0212 18.1319 19.0202 17.9992C19.0193 17.8664 18.9919 17.7351 18.9397 17.613C18.8874 17.491 18.8114 17.3805 18.716 17.2881L13.432 11.9841Z" fill="#393A3D"/>
</svg>