<svg width="24" height="24" viewBox="0 0 24 24" fill="none" xmlns="http://www.w3.org/2000/svg">
<path d="M20.912 4.52746L19.5 3.11146C19.2224 2.83183 18.8921 2.61006 18.5282 2.459C18.1643 2.30794 17.774 2.23061 17.38 2.23146V2.23146C16.9868 2.23006 16.5973 2.30648 16.2338 2.45631C15.8703 2.60614 15.54 2.82642 15.262 3.10446L3.927 14.4005C3.8462 14.4851 3.78087 14.5833 3.734 14.6905C3.72121 14.7182 3.70986 14.7466 3.7 14.7755C3.69 14.8045 3.674 14.8305 3.666 14.8605L2.24 20.5205C2.20289 20.668 2.19991 20.822 2.23131 20.9709C2.2627 21.1197 2.32764 21.2594 2.42118 21.3794C2.51471 21.4993 2.63438 21.5964 2.77108 21.6631C2.90777 21.7298 3.05789 21.7645 3.21 21.7645C3.29119 21.7642 3.37207 21.7545 3.451 21.7355L9.11 20.3295C9.143 20.3215 9.172 20.3035 9.204 20.2925C9.236 20.2815 9.258 20.2725 9.284 20.2605C9.39001 20.2139 9.48711 20.1493 9.571 20.0695V20.0695L20.902 8.76946C21.4657 8.20821 21.7835 7.44603 21.7854 6.65054C21.7872 5.85504 21.4731 5.09137 20.912 4.52746V4.52746ZM5.171 17.0665L6.833 18.7335L6.914 18.8135L4.586 19.3915L5.171 17.0665ZM8.871 17.9445L7.459 16.5285L6.047 15.1115L14.547 6.63946L15.959 8.05546L17.371 9.47146L8.871 17.9445ZM19.494 7.35346L18.785 8.05946L17.373 6.64346L15.961 5.22646L16.669 4.52046C16.8569 4.33463 17.1107 4.23072 17.375 4.23146C17.5062 4.23078 17.6362 4.25625 17.7574 4.30638C17.8786 4.35652 17.9886 4.43032 18.081 4.52346L19.5 5.93946C19.6867 6.12779 19.7909 6.38254 19.7898 6.64771C19.7887 6.91287 19.6823 7.16673 19.494 7.35346V7.35346Z" fill="#393A3D"/>
</svg>