<svg width="24" height="24" viewBox="0 0 24 24" fill="none" xmlns="http://www.w3.org/2000/svg">
<path d="M21.011 5.013L16.011 5.006V3.006C16.011 2.47557 15.8003 1.96686 15.4252 1.59179C15.0501 1.21671 14.5414 1.006 14.011 1.006L10.011 1C9.48055 1 8.97185 1.21071 8.59677 1.58579C8.2217 1.96086 8.01099 2.46957 8.01099 3V5H5.01099H3.01099C2.74577 5 2.49142 5.10536 2.30388 5.29289C2.11634 5.48043 2.01099 5.73478 2.01099 6C2.01099 6.26522 2.11634 6.51957 2.30388 6.70711C2.49142 6.89464 2.74577 7 3.01099 7H4.01099L3.99199 20C3.99199 20.7948 4.30737 21.5571 4.8689 22.1196C5.43043 22.682 6.1922 22.9987 6.98699 23L16.987 23.016C17.7826 23.016 18.5457 22.6999 19.1083 22.1373C19.6709 21.5747 19.987 20.8117 19.987 20.016L20.006 7.016H21.006C21.2712 7.016 21.5256 6.91064 21.7131 6.72311C21.9006 6.53557 22.006 6.28122 22.006 6.016C22.006 5.75078 21.9006 5.49643 21.7131 5.30889C21.5256 5.12136 21.2712 5.016 21.006 5.016L21.011 5.013ZM10.013 3L14.013 3.006V5.006H12.013H10.013V3ZM17.988 20.012C17.988 20.2772 17.8826 20.5316 17.6951 20.7191C17.5076 20.9066 17.2532 21.012 16.988 21.012L6.98799 20.996C6.72277 20.996 6.46842 20.8906 6.28088 20.7031C6.09334 20.5156 5.98799 20.2612 5.98799 19.996L6.00699 6.996L12.007 7.005H15.007H18.007L17.988 20.012Z" fill="#393A3D"/>
<path d="M15 9.00488C14.7348 9.00488 14.4804 9.11024 14.2929 9.29778C14.1054 9.48531 14 9.73967 14 10.0049L13.988 18.0049C13.988 18.2701 14.0934 18.5245 14.2809 18.712C14.4684 18.8995 14.7228 19.0049 14.988 19.0049C15.2532 19.0049 15.5076 18.8995 15.6951 18.712C15.8826 18.5245 15.988 18.2701 15.988 18.0049L16 10.0049C16 9.73967 15.8946 9.48531 15.7071 9.29778C15.5196 9.11024 15.2652 9.00488 15 9.00488V9.00488Z" fill="#393A3D"/>
</svg>
